<mxfile host="app.diagrams.net" modified="2023-11-19T10:33:56.540Z" agent="Mozilla/5.0 (Windows NT 10.0; Win64; x64) AppleWebKit/537.36 (KHTML, like Gecko) Chrome/119.0.0.0 Safari/537.36" etag="FWqOnGG1ohXd9FyR1NhF" version="22.1.3" type="google">
  <diagram id="C5RBs43oDa-KdzZeNtuy" name="Page-1">
    <mxGraphModel grid="1" page="1" gridSize="10" guides="1" tooltips="1" connect="1" arrows="1" fold="1" pageScale="1" pageWidth="827" pageHeight="1169" math="0" shadow="0">
      <root>
        <mxCell id="WIyWlLk6GJQsqaUBKTNV-0" />
        <mxCell id="WIyWlLk6GJQsqaUBKTNV-1" parent="WIyWlLk6GJQsqaUBKTNV-0" />
        <mxCell id="hzm5nS-1-b3PMZsYFxRv-0" value="Seleccionar devolució producte" style="rounded=1;whiteSpace=wrap;html=1;fontSize=12;glass=0;strokeWidth=1;shadow=0;" vertex="1" parent="WIyWlLk6GJQsqaUBKTNV-1">
          <mxGeometry x="323" y="360" width="120" height="40" as="geometry" />
        </mxCell>
        <mxCell id="hzm5nS-1-b3PMZsYFxRv-1" value="" style="ellipse;whiteSpace=wrap;html=1;aspect=fixed;fillColor=#000000;" vertex="1" parent="WIyWlLk6GJQsqaUBKTNV-1">
          <mxGeometry x="363" y="270" width="40" height="40" as="geometry" />
        </mxCell>
        <mxCell id="hzm5nS-1-b3PMZsYFxRv-2" value="" style="rounded=0;html=1;jettySize=auto;orthogonalLoop=1;fontSize=11;endArrow=block;endFill=0;endSize=8;strokeWidth=1;shadow=0;labelBackgroundColor=none;edgeStyle=orthogonalEdgeStyle;" edge="1" parent="WIyWlLk6GJQsqaUBKTNV-1">
          <mxGeometry relative="1" as="geometry">
            <mxPoint x="382.5" y="310" as="sourcePoint" />
            <mxPoint x="382.5" y="360" as="targetPoint" />
          </mxGeometry>
        </mxCell>
        <mxCell id="hzm5nS-1-b3PMZsYFxRv-4" value="" style="rounded=0;html=1;jettySize=auto;orthogonalLoop=1;fontSize=11;endArrow=block;endFill=0;endSize=8;strokeWidth=1;shadow=0;labelBackgroundColor=none;edgeStyle=orthogonalEdgeStyle;" edge="1" parent="WIyWlLk6GJQsqaUBKTNV-1">
          <mxGeometry relative="1" as="geometry">
            <mxPoint x="382.5" y="400" as="sourcePoint" />
            <mxPoint x="382.5" y="450" as="targetPoint" />
          </mxGeometry>
        </mxCell>
        <mxCell id="hzm5nS-1-b3PMZsYFxRv-5" value="Mostrar llista de productes" style="rounded=1;whiteSpace=wrap;html=1;fontSize=12;glass=0;strokeWidth=1;shadow=0;" vertex="1" parent="WIyWlLk6GJQsqaUBKTNV-1">
          <mxGeometry x="323" y="570" width="120" height="40" as="geometry" />
        </mxCell>
        <mxCell id="hzm5nS-1-b3PMZsYFxRv-7" value="Triar productes" style="rounded=1;whiteSpace=wrap;html=1;fontSize=12;glass=0;strokeWidth=1;shadow=0;" vertex="1" parent="WIyWlLk6GJQsqaUBKTNV-1">
          <mxGeometry x="323" y="660" width="120" height="40" as="geometry" />
        </mxCell>
        <mxCell id="hzm5nS-1-b3PMZsYFxRv-8" value="" style="rounded=0;html=1;jettySize=auto;orthogonalLoop=1;fontSize=11;endArrow=block;endFill=0;endSize=8;strokeWidth=1;shadow=0;labelBackgroundColor=none;edgeStyle=orthogonalEdgeStyle;" edge="1" parent="WIyWlLk6GJQsqaUBKTNV-1">
          <mxGeometry relative="1" as="geometry">
            <mxPoint x="382.5" y="610" as="sourcePoint" />
            <mxPoint x="382.5" y="660" as="targetPoint" />
          </mxGeometry>
        </mxCell>
        <mxCell id="hzm5nS-1-b3PMZsYFxRv-9" value="Proporcionar motiu de devolució" style="rounded=1;whiteSpace=wrap;html=1;fontSize=12;glass=0;strokeWidth=1;shadow=0;" vertex="1" parent="WIyWlLk6GJQsqaUBKTNV-1">
          <mxGeometry x="323" y="750" width="120" height="40" as="geometry" />
        </mxCell>
        <mxCell id="hzm5nS-1-b3PMZsYFxRv-10" value="" style="rounded=0;html=1;jettySize=auto;orthogonalLoop=1;fontSize=11;endArrow=block;endFill=0;endSize=8;strokeWidth=1;shadow=0;labelBackgroundColor=none;edgeStyle=orthogonalEdgeStyle;" edge="1" parent="WIyWlLk6GJQsqaUBKTNV-1">
          <mxGeometry relative="1" as="geometry">
            <mxPoint x="382.5" y="700" as="sourcePoint" />
            <mxPoint x="382.5" y="750" as="targetPoint" />
          </mxGeometry>
        </mxCell>
        <mxCell id="hzm5nS-1-b3PMZsYFxRv-11" value="" style="rounded=0;html=1;jettySize=auto;orthogonalLoop=1;fontSize=11;endArrow=block;endFill=0;endSize=8;strokeWidth=1;shadow=0;labelBackgroundColor=none;edgeStyle=orthogonalEdgeStyle;" edge="1" parent="WIyWlLk6GJQsqaUBKTNV-1">
          <mxGeometry relative="1" as="geometry">
            <mxPoint x="382.5" y="790" as="sourcePoint" />
            <mxPoint x="382.5" y="840" as="targetPoint" />
          </mxGeometry>
        </mxCell>
        <mxCell id="hzm5nS-1-b3PMZsYFxRv-12" value="" style="ellipse;whiteSpace=wrap;html=1;aspect=fixed;fillColor=#000000;" vertex="1" parent="WIyWlLk6GJQsqaUBKTNV-1">
          <mxGeometry x="363" y="850" width="40" height="40" as="geometry" />
        </mxCell>
        <mxCell id="hzm5nS-1-b3PMZsYFxRv-13" value="" style="ellipse;whiteSpace=wrap;html=1;aspect=fixed;fillColor=none;strokeWidth=3;" vertex="1" parent="WIyWlLk6GJQsqaUBKTNV-1">
          <mxGeometry x="353" y="840" width="60" height="60" as="geometry" />
        </mxCell>
        <mxCell id="hzm5nS-1-b3PMZsYFxRv-14" value="Producte ja retornat?" style="rhombus;whiteSpace=wrap;html=1;shadow=0;fontFamily=Helvetica;fontSize=12;align=center;strokeWidth=1;spacing=6;spacingTop=-4;" vertex="1" parent="WIyWlLk6GJQsqaUBKTNV-1">
          <mxGeometry x="333" y="450" width="100" height="80" as="geometry" />
        </mxCell>
        <mxCell id="hzm5nS-1-b3PMZsYFxRv-15" value="No" style="rounded=0;html=1;jettySize=auto;orthogonalLoop=1;fontSize=11;endArrow=block;endFill=0;endSize=8;strokeWidth=1;shadow=0;labelBackgroundColor=none;edgeStyle=orthogonalEdgeStyle;" edge="1" parent="WIyWlLk6GJQsqaUBKTNV-1">
          <mxGeometry x="0.0122" y="20" relative="1" as="geometry">
            <mxPoint y="-1" as="offset" />
            <mxPoint x="382.74" y="570" as="targetPoint" />
            <mxPoint x="382.74" y="530" as="sourcePoint" />
          </mxGeometry>
        </mxCell>
        <mxCell id="hzm5nS-1-b3PMZsYFxRv-16" value="Yes" style="edgeStyle=orthogonalEdgeStyle;rounded=0;html=1;jettySize=auto;orthogonalLoop=1;fontSize=11;endArrow=block;endFill=0;endSize=8;strokeWidth=1;shadow=0;labelBackgroundColor=none;entryX=1;entryY=0.5;entryDx=0;entryDy=0;" edge="1" parent="WIyWlLk6GJQsqaUBKTNV-1" target="hzm5nS-1-b3PMZsYFxRv-0">
          <mxGeometry x="-0.8462" y="10" relative="1" as="geometry">
            <mxPoint as="offset" />
            <mxPoint x="543" y="770" as="targetPoint" />
            <mxPoint x="433" y="490" as="sourcePoint" />
            <Array as="points">
              <mxPoint x="503" y="490" />
              <mxPoint x="503" y="380" />
            </Array>
          </mxGeometry>
        </mxCell>
      </root>
    </mxGraphModel>
  </diagram>
</mxfile>
